<?xml version="1.0" encoding="UTF-8" standalone="no"?>
<!-- Created with Inkscape (http://www.inkscape.org/) -->

<svg
   xmlns:dc="http://purl.org/dc/elements/1.1/"
   xmlns:cc="http://creativecommons.org/ns#"
   xmlns:rdf="http://www.w3.org/1999/02/22-rdf-syntax-ns#"
   xmlns:svg="http://www.w3.org/2000/svg"
   xmlns="http://www.w3.org/2000/svg"
   xmlns:sodipodi="http://sodipodi.sourceforge.net/DTD/sodipodi-0.dtd"
   xmlns:inkscape="http://www.inkscape.org/namespaces/inkscape"
   width="500"
   height="500"
   id="svg2"
   version="1.1"
   inkscape:version="0.48.5 r10040"
   sodipodi:docname="Documento nuevo 1">
  <defs
     id="defs4" />
  <sodipodi:namedview
     id="base"
     pagecolor="#ffffff"
     bordercolor="#666666"
     borderopacity="1.0"
     inkscape:pageopacity="0.0"
     inkscape:pageshadow="2"
     inkscape:zoom="0.98994949"
     inkscape:cx="166.81576"
     inkscape:cy="285.71429"
     inkscape:document-units="px"
     inkscape:current-layer="layer1"
     showgrid="false"
     inkscape:window-width="1920"
     inkscape:window-height="1014"
     inkscape:window-x="0"
     inkscape:window-y="27"
     inkscape:window-maximized="1" />
  <metadata
     id="metadata7">
    <rdf:RDF>
      <cc:Work
         rdf:about="">
        <dc:format>image/svg+xml</dc:format>
        <dc:type
           rdf:resource="http://purl.org/dc/dcmitype/StillImage" />
        <dc:title></dc:title>
      </cc:Work>
    </rdf:RDF>
  </metadata>
  <g
     inkscape:label="Capa 1"
     inkscape:groupmode="layer"
     id="layer1"
     transform="translate(0,-552.36218)">
    <g
       id="g3767"
       transform="matrix(1.4612374,0,0,1.4612374,-82.600271,-361.199)">
      <path
         inkscape:connector-curvature="0"
         d="m 201.94505,724.43141 c -3.90835,0.18779 -7.66885,-0.35689 -11.33175,-1.70895 -2.76991,-1.15755 -5.51317,-2.40593 -8.22527,-3.69711 -2.52866,-1.51189 -4.4594,-3.60618 -6.08665,-6.02186 -1.39813,-2.05746 -2.83215,-4.09239 -4.18142,-6.18251 -1.25981,-2.6239 -2.59343,-5.21068 -3.81959,-7.85061 -1.13002,-2.60929 -1.80714,-5.40107 -2.48774,-8.15718 -0.55645,-2.2566 -0.68163,-4.57348 -0.74702,-6.88596 -0.0698,-2.60614 -0.12341,-5.19757 0.32467,-7.77167 0.67773,-2.79617 2.35272,-5.17013 3.9051,-7.54222 1.43153,-2.32196 3.24079,-4.36856 5.38154,-6.05282 5.9735,-4.26721 12.61586,-7.11525 18.97311,-10.60929 0.43041,-0.23108 0.8599,-0.46389 1.29124,-0.69324 0.99143,-0.52717 3.92068,-2.19115 2.94619,-1.63329 -3.76834,2.15725 -7.52544,4.33415 -11.29942,6.4815 -0.46393,0.26397 0.90587,-0.56529 1.36876,-0.83108 4.6916,-2.69389 9.39617,-5.36513 14.09425,-8.0477 2.25872,-1.52733 4.9273,-1.77619 7.50561,-2.36327 2.49113,-0.60072 5.03718,-0.80568 7.5886,-0.91245 2.49365,-0.0822 4.9892,-0.0659 7.48386,-0.0666 2.54075,0.008 5.08154,0.0111 7.62231,0.0133 3.01366,0.25156 5.88981,0.66124 8.64281,1.9488 2.17327,1.04554 4.46746,1.79413 6.70463,2.68894 2.72142,0.87238 5.18611,2.38287 7.62091,3.84998 2.76263,1.45152 5.44363,3.04462 8.1004,4.67958 2.38972,1.51413 4.47888,3.42804 6.5275,5.36366 1.89215,1.80186 2.83233,4.18741 3.77154,6.55954 1.03202,2.51754 1.29553,5.21556 2.19856,7.77288 1.18838,2.74345 1.90878,5.60341 2.31402,8.55504 0.28313,2.56175 0.29557,5.145 0.29454,7.71956 0.004,2.5317 -0.0145,5.06331 -0.0159,7.59499 0.19315,2.75669 -0.64662,5.24532 -2.02318,7.58974 -1.43483,2.10271 -3.54476,3.57462 -5.54421,5.09533 -6.13764,4.17535 -12.34878,8.80718 -19.60546,10.62744 -2.13134,0.97148 -4.34238,1.65528 -6.57153,2.36126 -2.40404,0.77325 -4.91366,0.95886 -7.41746,1.09034 -2.77728,0.0359 -5.49753,-0.0111 -8.22312,0.5717 -2.08346,0.59698 -4.28422,0.65257 -6.35487,1.29455 -0.43172,0.13385 -2.50332,0.96008 -2.86054,1.10086 -2.86872,1.03551 -5.82507,1.85358 -8.7971,2.54293 -2.77786,0.28604 -5.51827,0.71109 -8.27527,1.15492 -2.82993,0.21821 -5.31115,1.66624 -7.87102,2.7568 -2.86238,1.12468 -5.63447,2.42844 -8.30833,3.94787 -2.41006,1.09294 -4.93403,1.98026 -7.4566,2.79685 -2.76476,1.1246 -5.58149,2.09623 -8.41069,3.0513 -2.57561,0.86107 -5.25379,1.30705 -7.87189,1.98775 -1.2157,0.45422 -2.55364,0.42575 -3.79638,0.72389 -1.4369,0.34472 -2.83682,0.94424 -4.2741,1.31931 -3.01751,1.03896 -6.15714,1.5686 -9.32138,1.89177 -2.35255,0.49811 -4.71019,0.9173 -7.05624,1.43881 -2.76564,0.40116 -5.22565,1.783 -7.83566,2.6997 -3.11914,0.80451 -6.21865,1.7663 -9.198,2.99748 -0.93959,0.53921 -1.94905,0.93741 -2.91097,1.43119 -0.44019,0.22595 -1.72811,0.9646 -1.29931,0.71773 20.70838,-11.9222 13.51314,-8.1363 9.28505,-5.0706 -2.54614,1.94439 -4.44837,4.59379 -6.25444,7.20887 -1.31764,2.33067 -3.03285,4.38896 -4.56769,6.57224 -1.20512,2.21265 -2.56027,4.33613 -3.86522,6.49095 -1.54932,2.69327 -3.02519,5.41352 -4.79842,7.9689 -1.99581,2.79657 -4.02842,5.57931 -5.58927,8.64684 -1.20618,2.54912 -1.46992,5.35802 -1.95256,8.09759 -0.54678,3.05475 -1.96913,5.7865 -3.503981,8.44165 -1.257513,2.23591 -2.708928,4.3584 -3.965268,6.59323 -1.145025,2.13931 -1.383915,4.29722 -0.540085,6.56748 1.313847,2.42029 3.944597,3.05058 6.282764,4.14182 2.66182,1.37252 5.59363,1.75265 8.47818,2.33872 2.81101,0.5804 5.67705,0.79199 8.53923,0.90752 1.17779,-0.12765 1.4247,-0.082 2.54164,-0.48797 2.76421,-1.00477 22.65711,-12.8753 -8.31398,4.90491 32.03792,-18.51576 6.42369,-3.70403 2.10018,-1.23523 -0.70337,0.40163 1.34647,-0.90278 2.04774,-1.30806 12.44603,-7.19286 9.28203,-5.48636 14.85416,-8.46998 -39.419352,22.55434 32.85166,-18.97833 -6.78833,3.80183 2.10908,-1.30353 4.1678,-2.67546 6.10853,-4.21932 2.03831,-1.76276 3.54929,-4.04531 5.03347,-6.27297 1.5223,-2.39103 2.82696,-4.89477 4.47147,-7.2086 1.6472,-2.10837 3.23256,-4.26088 4.95654,-6.3079 1.7428,-2.27074 3.97477,-3.99576 6.22393,-5.72013 2.12266,-1.84672 4.18074,-3.77682 6.17882,-5.75841 2.22372,-2.21509 4.27088,-4.59284 6.47273,-6.82878 5.9067,-6.31681 11.3355,-8.14351 19.84093,-12.84739 2.86833,-0.89172 5.40814,-0.21873 7.98554,1.12719 2.93768,1.61398 4.22954,3.51746 5.74287,6.38982 1.40567,2.75228 2.10347,5.76109 2.17705,8.8336 -0.11397,4.05561 -2.0422,7.61539 -3.7205,11.1983 -1.42007,2.59137 -2.58479,5.29665 -3.83563,7.96917 -1.2236,2.16978 -2.3714,4.37897 -3.5474,6.57469 -1.12833,2.60936 -2.86649,4.85517 -4.42843,7.20462 -1.55227,2.79444 -3.32576,5.43019 -5.26682,7.96578 -2.21575,2.55656 -3.86128,5.49236 -5.55957,8.39501 -1.58857,2.55093 -3.47895,4.88982 -5.10298,7.41762 -1.81235,2.81121 -3.49236,5.70521 -5.35041,8.48664 -1.54999,2.15497 -2.86287,4.43707 -4.00264,6.8295 -0.95829,2.33127 -1.75094,4.72272 -2.77684,7.02576 -1.15352,2.26323 -1.92835,4.68519 -2.84783,7.04608 -0.87354,2.48261 -2.17514,4.75982 -3.42439,7.06323 -1.29606,2.99512 -2.55485,5.97758 -4.06334,8.88045 -1.51756,2.68992 -2.75425,5.51792 -4.13052,8.27745 -1.2893,1.971 -2.28804,4.06471 -3.13507,6.25539 -0.74727,2.13177 -0.97096,4.37905 -1.09874,6.61872 -0.0902,2.25 -0.081,4.50234 -0.0738,6.75367 -5e-4,2.52151 0.004,5.043 0.005,7.5645 -0.195,2.77307 0.72915,5.33905 1.77062,7.85742 1.23688,2.84275 3.2103,4.94139 5.93061,6.369 2.53837,1.41956 5.493,1.53697 8.20129,2.4928 2.19634,1.05317 4.46887,0.8809 6.82226,0.77939 2.45407,-0.27162 4.95105,-0.62054 7.36872,-1.16563 -1.78136,1.46784 5.51053,-2.92473 3.28863,-1.64043 -3.92865,2.27084 -7.8669,4.5251 -11.81024,6.77035 -0.35149,0.20012 0.68462,-0.4312 1.03416,-0.63471 4.63708,-2.69983 9.2836,-5.38342 13.9254,-8.07514 0.38794,-0.21955 0.77588,-0.4391 1.16382,-0.65865 -3.87693,2.23002 -7.74169,4.48131 -11.63078,6.69004 -0.40061,0.22751 0.78165,-0.48819 1.16379,-0.74551 1.31379,-0.88465 2.48719,-1.87527 3.657,-2.9397 2.51217,-2.31341 4.29737,-5.22961 6.25731,-7.99011 1.72092,-2.38448 3.51498,-4.70747 5.33547,-7.0159 1.86133,-2.6069 3.74087,-5.19547 5.39781,-7.93862 1.35905,-2.62765 2.61297,-5.29963 4.18448,-7.81028 1.66134,-2.2838 2.8789,-4.78459 3.95397,-7.38168 0.71761,-2.52881 1.38586,-5.00735 2.52571,-7.38718 1.10669,-2.04049 1.47516,-4.32044 1.97454,-6.55533 0.62257,-2.71079 1.04852,-5.46827 1.88356,-8.12403 0.99246,-2.44611 1.63269,-5.00575 2.36053,-7.5364 0.85195,-2.56574 1.19203,-5.25075 1.78058,-7.87915 0.33739,-2.41651 1.26566,-4.66372 1.99906,-6.97232 0.7936,-2.39983 1.58627,-4.79945 2.37673,-7.20014 0.74012,-2.12651 1.23349,-4.30598 2.09936,-6.3882 1.04284,-2.13807 2.05795,-4.26643 2.88052,-6.49957 0.84737,-2.54415 2.58647,-4.48701 4.362,-6.41965 5.31775,-5.43126 12.6585,-8.16653 19.15069,-11.98129 2.40846,-1.16631 4.95091,-2.11657 7.59129,-2.59448 2.59777,-0.48737 5.16621,-0.44076 7.76564,-0.0788 2.31993,0.68684 4.68098,1.1315 6.9254,2.04299 2.63517,0.87186 5.01656,2.29196 6.91641,4.31011 2.20753,2.46761 3.94771,5.28056 5.33525,8.27688 0.9543,2.64854 1.34784,5.46159 1.82611,8.22676 0.4702,2.43263 0.33025,4.92283 0.91389,7.33115 0.71411,2.40583 1.13465,4.87883 1.7495,7.30872 0.65833,2.21022 0.70983,4.51584 0.99786,6.78418 0.39552,2.68875 0.8379,5.36858 1.27043,8.0518 0.1417,2.588 0.86444,4.99758 1.66341,7.43683 0.73419,2.41692 1.92069,4.6481 2.80743,7.003 0.71898,2.58463 1.77486,5.05396 2.76589,7.54203 1.2046,2.61607 1.97921,5.39563 3.18503,8.01014 1.21986,2.45714 2.5517,4.814 3.57161,7.36752 1.18435,2.42829 2.27129,4.91844 3.56906,7.29039 1.18467,2.25422 2.44457,4.46616 3.76518,6.64361 1.46579,2.35859 3.33252,4.42002 5.22355,6.43887 2.77651,2.23749 5.79134,4.18894 8.88708,5.95651 2.46028,1.38438 4.9346,2.73585 7.40562,4.09928 2.45183,1.53073 5.2081,2.19731 8.0362,2.5792 2.57231,0.24555 5.1598,0.22813 7.74095,0.2248 2.6456,0.0897 5.24847,-0.0563 7.87048,-0.37159 2.7914,-0.44263 5.33825,-1.54101 7.7921,-2.89947 -22.0796,13.3732 -10.69089,6.65284 -6.30714,2.2974 2.03592,-2.12786 3.28946,-4.78809 4.4107,-7.47218 1.18686,-2.73324 2.13039,-5.56341 2.96076,-8.42292 0.673,-2.48902 0.82392,-5.06877 0.90846,-7.6329 0.0494,-2.49839 0.0387,-4.99742 0.0261,-7.49611 -0.0655,-2.58375 0.43204,-5.13237 0.6926,-7.69384 0.0907,-2.53773 0.52162,-5.03658 0.86654,-7.54689 0.32531,-2.50339 0.39471,-5.03031 0.43827,-7.55144 0.0248,-2.50347 0.0238,-5.00704 0.0155,-7.51058 0.17822,-2.49515 -0.41217,-4.80505 -1.34534,-7.08503 -1.1519,-2.52592 -2.02734,-5.16462 -3.2595,-7.65292 -1.42499,-2.1433 -2.70054,-4.37813 -4.06835,-6.55822 -1.09687,-2.07375 -2.13757,-4.13473 -3.53578,-6.02749 -1.34934,-2.15054 -3.04901,-4.03637 -4.59321,-6.03958 -1.13455,-2.07767 -2.55842,-3.85974 -4.23239,-5.51662 -1.61541,-1.91313 -3.80731,-3.05497 -5.80252,-4.48977 -2.33608,-1.52543 -4.56802,-3.16922 -7.07816,-4.40329 -2.339,-0.68932 -4.51997,-1.7819 -6.81189,-2.59711 -3.17872,-1.23843 -6.54541,-1.95255 -9.75167,-3.13636 -3.38014,-1.26946 -6.63374,-2.82306 -9.99255,-4.15066 -3.04464,-0.74338 -5.70361,-2.41376 -8.60529,-3.52135 -2.78947,-1.13071 -5.28872,-2.88081 -7.71591,-4.64038 -2.87137,-1.65824 -5.45638,-3.73164 -8.15981,-5.63299 -2.32821,-1.58155 -4.44037,-3.44064 -6.49783,-5.35289 -1.97078,-1.89591 -3.34905,-4.17542 -4.38324,-6.68392 -0.96607,-2.65229 -1.96481,-5.25225 -2.53128,-8.02634 -0.52789,-2.65221 -0.65769,-5.29626 -0.15311,-7.95246 0.50937,-2.74583 2.11044,-4.90545 3.84237,-7.00955 2.30023,-2.45922 4.84496,-4.69265 7.5217,-6.73238 6.66941,-4.76074 13.50939,-9.739 21.29738,-12.43645 2.97052,-0.85009 6.10128,-0.94402 9.1733,-1.00369 3.15458,0.24287 6.08893,1.5533 9.00122,2.69399 2.93002,1.26864 5.35976,3.4063 7.71292,5.51686 2.13463,2.16182 4.63131,3.88312 7.0528,5.69452 1.96599,2.04174 4.38308,3.49123 6.57345,5.26855 2.37008,1.95535 4.5882,4.06618 6.58248,6.40174 1.92194,1.92894 3.73028,3.954 5.84546,5.67821 2.31678,1.44103 4.5415,3.01755 6.75575,4.60967 2.81073,1.73312 5.98712,2.56334 9.04147,3.72181 2.80166,1.05643 5.73177,1.54259 8.70198,1.76335 2.53089,0.12232 5.04289,0.3526 7.47918,-0.43981 4.84769,-2.40731 5.07502,-2.54476 -10.78202,6.17444 -0.32161,0.17685 0.62728,-0.39757 0.87497,-0.66842 0.32576,-0.3562 0.58328,-0.77232 0.82482,-1.19025 0.23431,-0.4054 1.31897,-2.75287 1.50386,-3.14878 1.35429,-2.53983 2.59429,-5.10877 3.2446,-7.92081 0.42524,-2.41753 0.43108,-4.88068 0.44074,-7.32744 0.19116,-2.5338 0.57181,-5.04688 0.78076,-7.58044 0.16419,-2.51525 0.18988,-5.03689 0.20023,-7.55662 -0.0401,-2.4513 0.1084,-4.91043 -0.0899,-7.3559 -0.16035,-2.23679 -1.29426,-4.17221 -2.27919,-6.12958 -1.28123,-2.38463 -3.01692,-4.48423 -4.54824,-6.70969 -1.34507,-1.78377 -2.42542,-3.81904 -4.04653,-5.38724 -0.66265,-0.64103 -2.04333,-1.55159 -2.78706,-2.06725 -3.11102,-2.1598 -6.51564,-3.72533 -9.96726,-5.24068 -3.58901,-2.13045 -7.61216,-3.02176 -11.58085,-4.10654 -3.26202,-1.10434 -6.67793,-1.78057 -9.8739,-3.06029 -3.12675,-1.12922 -6.30643,-2.09974 -9.48146,-3.08278 -2.97922,-0.7766 -6.0486,-1.0117 -9.11283,-1.12481 -2.57644,-0.0626 -5.15395,-0.0454 -7.73086,-0.0325 -2.53821,0.006 -5.07639,0.01 -7.6146,0.0118 -2.61038,-0.0207 -5.17225,-0.15519 -7.70911,0.52852 -2.49816,0.60035 -4.94327,1.37712 -7.4563,1.90858 -2.52228,0.51287 -5.01774,1.09129 -7.57923,1.3917 -2.51582,0.20763 -5.04092,0.21703 -7.56333,0.2262 -2.50663,0.006 -5.01324,-0.006 -7.51987,-0.006 -2.61104,-0.19124 -5.16004,0.18005 -7.73618,0.52826 -2.59468,0.36699 -5.21711,0.41375 -7.8327,0.4463 -2.92493,-0.29064 -5.64066,0.54736 -8.43234,1.24418 -2.48748,0.58298 -5.05267,0.71846 -7.59836,0.78346 -2.65449,-0.15694 -5.20707,0.46634 -7.77095,1.05314 -4.00717,0.7158 -8.08961,0.78842 -12.14788,0.88624 -4.2451,0.32629 -8.30216,-0.0434 -12.26884,-1.59367 -2.05181,-1.04571 -1.06286,-0.48474 -2.97029,-1.6768 0,0 12.54009,-8.10793 12.54009,-8.10793 l 0,0 c 1.79425,1.04529 0.86447,0.56016 2.79243,1.44948 3.86375,1.31211 7.82581,1.42819 11.88167,1.17556 4.04299,-0.13628 8.11376,-0.28956 12.07499,-1.1838 2.62558,-0.56428 5.25659,-0.92213 7.95036,-0.85456 2.49468,-0.13779 4.99103,-0.35799 7.41083,-1.02059 2.84135,-0.69406 5.6736,-1.12666 8.6134,-0.96758 2.59342,-0.0794 5.18605,-0.21114 7.75588,-0.59184 2.61517,-0.33186 5.22564,-0.47253 7.86338,-0.37666 2.50147,0.008 5.00296,0.0126 7.50443,6.6e-4 2.49005,-0.0271 4.98868,-0.0601 7.46123,-0.38584 2.51871,-0.38222 4.99313,-0.97453 7.48533,-1.49665 2.48668,-0.62476 4.9523,-1.33564 7.46143,-1.87181 2.62127,-0.39836 5.25943,-0.2934 7.90481,-0.29262 2.54041,-0.003 5.08083,-0.009 7.62121,-0.0194 2.58452,-1.3e-4 5.17084,-0.0165 7.75302,0.11162 3.14384,0.1916 6.28299,0.55351 9.31414,1.45299 3.18097,1.02573 6.39077,1.96642 9.51981,3.1467 3.22397,1.10188 6.52239,1.98344 9.78624,2.9595 4.0202,1.10088 7.98219,2.32047 11.67395,4.30806 3.53457,1.55552 6.98165,3.25554 10.15366,5.48232 1.0875,0.79277 2.03125,1.41642 2.98767,2.37873 1.6223,1.63229 2.77867,3.66367 4.14484,5.49548 1.59634,2.26889 3.3833,4.42178 4.7054,6.86675 1.05441,2.1142 2.29784,4.20627 2.53418,6.60583 0.31148,2.48645 0.0895,5.00444 0.15404,7.50607 -0.0127,2.54972 -0.013,5.10074 -0.15918,7.64731 -0.15035,2.50862 -0.47085,4.99902 -0.82148,7.48693 -0.005,2.53015 0.0213,5.07019 -0.31796,7.58354 -0.48043,2.96563 -1.63426,5.69054 -3.1499,8.28198 -0.72503,1.54176 -1.27948,3.23001 -2.06606,4.73406 -2.87751,5.50216 -10.03206,7.56754 -15.83503,9.36623 -2.569,0.41006 -5.17098,0.24705 -7.75574,0.0362 -3.04422,-0.33891 -6.02252,-1.0032 -8.88826,-2.109 -3.18443,-1.14469 -6.41993,-2.16601 -9.28165,-4.03674 -2.25954,-1.5907 -4.5606,-3.11919 -6.81949,-4.70898 -2.12541,-1.82682 -4.0741,-3.83796 -5.9882,-5.88247 -1.93447,-2.26174 -4.09468,-4.30058 -6.4072,-6.17612 -2.20451,-1.73016 -4.59788,-3.20014 -6.56759,-5.21597 -2.45394,-1.83238 -4.91847,-3.65769 -7.1057,-5.8135 -2.2546,-1.9972 -4.58826,-3.97416 -7.4367,-5.06847 -2.77338,-1.10183 -5.61838,-2.25186 -8.6546,-2.19492 -2.99292,0.12623 -6.03334,0.29007 -8.85439,1.39772 -5.44259,2.34699 -1.90317,0.88998 9.88736,-6.01389 0.46287,-0.27103 -0.93056,0.53409 -1.387,0.8158 -1.45216,0.89627 -2.7818,1.95359 -4.18439,2.92249 -2.72922,1.9055 -5.19366,4.13061 -7.62713,6.39803 -1.68297,1.90296 -3.47054,3.80605 -4.08126,6.34869 -0.74022,2.43563 -0.62073,4.90333 -0.17946,7.39604 0.5075,2.69952 1.48554,5.19708 2.42184,7.76453 0.90976,2.32437 2.21303,4.39025 4.03333,6.12107 2.0265,1.85953 4.11945,3.6448 6.38812,5.20676 2.66307,1.96065 5.31221,3.93434 8.15878,5.62929 2.36656,1.67332 4.79577,3.31151 7.52403,4.33918 2.85303,1.20564 5.58287,2.6951 8.58707,3.52604 3.32304,1.32882 6.51445,2.96192 9.89724,4.14054 3.27804,1.08552 6.66861,1.82672 9.88508,3.09045 2.29424,0.91754 4.59303,1.81938 6.87548,2.75946 2.50959,1.34709 4.81143,3.00088 7.18829,4.56417 2.12099,1.41087 4.25385,2.77755 5.96465,4.70338 1.70318,1.70973 3.15191,3.56951 4.32283,5.68886 1.55341,2.00998 3.2555,3.9081 4.61277,6.0663 1.41712,1.92556 2.51782,3.99642 3.59663,6.12272 1.39221,2.22276 2.67349,4.51137 4.1204,6.69962 1.25264,2.51786 2.14149,5.18764 3.3353,7.73376 1.00131,2.4415 1.7746,4.91382 1.61932,7.59741 -0.003,2.51212 0.0105,5.02428 -0.0143,7.53631 -0.0305,2.57191 -0.0819,5.14583 -0.35059,7.70633 -0.3266,2.49919 -0.84418,4.97268 -0.9009,7.49976 -0.22384,2.52433 -0.73101,5.02528 -0.74814,7.55797 0.002,2.514 0.0244,5.02822 -0.0156,7.54202 -0.06,2.67014 -0.17278,5.3483 -0.75439,7.96614 -0.78502,2.91096 -1.72577,5.79518 -2.91545,8.56551 -1.03085,2.83427 -2.29647,5.62395 -4.18462,7.99922 -5.21757,5.90297 -12.12424,9.10963 -19.16706,12.82586 -2.581,1.21084 -5.23395,2.17308 -8.09642,2.45558 -2.65935,0.28306 -5.32305,0.27859 -7.99564,0.25036 -2.62954,-0.0142 -5.26982,-0.0298 -7.87666,-0.41939 -2.93426,-0.5515 -5.7554,-1.44319 -8.31889,-3.01683 -2.462,-1.38623 -4.97733,-2.67767 -7.38867,-4.1525 -3.16174,-1.91825 -6.33139,-3.89722 -9.14937,-6.29942 -1.95261,-2.10073 -3.86872,-4.25294 -5.38506,-6.69965 -1.33504,-2.1955 -2.64218,-4.40586 -3.81295,-6.69401 -1.32669,-2.42453 -2.39605,-4.98612 -3.63549,-7.45507 -1.02602,-2.52328 -2.33686,-4.86133 -3.53265,-7.30312 -1.22399,-2.63743 -2.02027,-5.43778 -3.23888,-8.07859 -0.97814,-2.50265 -2.09948,-4.96077 -2.78218,-7.56639 -0.87531,-2.38186 -2.10656,-4.61788 -2.86149,-7.05003 -0.79672,-2.52046 -1.65532,-4.98383 -1.72924,-7.66342 -0.41923,-2.68777 -0.93539,-5.35568 -1.31889,-8.04889 -0.35621,-2.20853 -0.31385,-4.47514 -0.9299,-6.64575 -0.60884,-2.42928 -1.01148,-4.89978 -1.73329,-7.3014 -0.68237,-2.44672 -0.60321,-4.95349 -0.9677,-7.45678 -0.42507,-2.64937 -0.83544,-5.32952 -1.6242,-7.8949 -1.26263,-2.86701 -2.91769,-5.53691 -5.0801,-7.81935 -1.84849,-1.80144 -4.13269,-2.94647 -6.57596,-3.74786 -2.18973,-0.74274 -4.45571,-1.28394 -6.71813,-1.74949 -2.50099,-0.23962 -5.00456,-0.0664 -7.46029,0.48278 -2.53993,0.6861 -5.02564,1.62817 -7.31165,2.94158 -4.58125,2.53751 -11.75474,6.54001 9.29046,-5.52138 1.87438,-1.07424 -4.7227,2.88652 -2.97775,2.34862 -1.80236,1.71079 -3.59292,3.54634 -4.60517,5.84854 -0.86682,2.22226 -1.5836,4.487 -2.83905,6.53927 -0.87952,2.06934 -1.57473,4.13661 -2.15088,6.3142 -0.88468,2.34878 -1.52382,4.78682 -2.40606,7.1365 -0.65824,2.31519 -1.73157,4.48162 -2.03866,6.883 -0.6314,2.65616 -1.01139,5.35822 -1.76522,7.98692 -0.81505,2.51878 -1.25415,5.15598 -2.32353,7.59317 -1.01881,2.5496 -1.36408,5.27598 -1.94314,7.94954 -0.51277,2.31848 -0.80189,4.7083 -1.83064,6.87477 -1.162,2.35457 -2.18369,4.66042 -2.57831,7.29071 -1.03262,2.68867 -2.15152,5.32976 -3.86115,7.66941 -1.67073,2.43198 -3.01836,5.05357 -4.20073,7.75663 -1.67307,2.77437 -3.48788,5.42685 -5.3325,8.08984 -1.74933,2.35446 -3.66604,4.58333 -5.35542,6.98406 -2.04888,2.75527 -3.75817,5.7748 -6.18326,8.2314 -5.47257,5.74431 -12.98888,8.83261 -19.78574,12.76043 3.89164,-2.26712 7.76075,-4.57336 11.67493,-6.80134 0.35663,-0.203 -0.64208,0.51599 -0.99638,0.72302 -4.74697,2.77392 -11.20771,7.62719 -17.4042,9.27717 -2.4933,0.4317 -4.99857,0.9264 -7.53419,0.97832 -2.47025,0.0418 -4.81013,-0.19334 -7.10048,-1.21492 -2.8161,-0.83599 -5.82503,-1.15778 -8.3634,-2.75474 -2.84297,-1.75922 -5.05882,-4.12486 -6.43435,-7.20933 -1.11685,-2.66184 -2.21936,-5.42582 -2.07015,-8.36577 -0.002,-2.51815 -0.005,-5.03635 -0.0198,-7.55447 -0.003,-2.27234 -0.0329,-4.54539 0.0286,-6.81716 0.0975,-2.35879 0.27759,-4.72578 0.92737,-7.00772 0.70217,-2.28844 1.639,-4.52344 3.05159,-6.47319 1.52586,-2.70535 2.61644,-5.63794 4.21041,-8.31334 1.58167,-2.92158 2.88843,-5.72844 3.99719,-8.85269 1.19376,-2.28877 2.6207,-4.46008 3.45033,-6.92149 1.04723,-2.34037 1.69443,-4.83715 2.85936,-7.12823 1.12959,-2.24356 1.88671,-4.62665 2.74657,-6.98106 1.07016,-2.50864 2.37096,-4.88427 3.96127,-7.1051 1.92834,-2.71731 3.54263,-5.6193 5.36041,-8.40754 1.52837,-2.59152 3.36955,-4.95268 5.10806,-7.4031 1.78631,-2.88916 3.24842,-5.99284 5.5238,-8.55622 1.90074,-2.51751 3.87957,-4.98736 5.28134,-7.83607 1.44842,-2.37891 3.31296,-4.4891 4.471,-7.04223 1.01726,-2.26797 2.31376,-4.43272 3.55368,-6.5859 1.38024,-2.61968 2.30649,-5.45157 3.90587,-7.96318 1.60434,-3.4291 3.66834,-6.72593 3.98299,-10.5913 0.0467,-2.84152 -0.56075,-5.64175 -1.84357,-8.19277 -1.34425,-2.50528 -2.59194,-4.3033 -5.26047,-5.56881 -2.44123,-1.04633 -4.78029,-1.19325 -7.27099,-0.12466 3.88254,-2.27539 7.76508,-4.55079 11.64762,-6.82619 -1.12379,0.56739 -1.33252,0.61255 -2.36923,1.39447 -1.29464,0.97645 -2.3699,2.18721 -3.53473,3.30575 -2.24043,2.21275 -4.32588,4.54785 -6.49319,6.82938 -1.96857,2.02991 -4.04618,3.93102 -6.08225,5.89319 -2.11825,1.82561 -4.63004,3.17801 -6.32584,5.47725 -1.7654,1.99806 -3.35043,4.1263 -5.00576,6.21143 -1.74155,2.23614 -3.13412,4.65574 -4.49746,7.13397 -1.52024,2.2903 -3.01548,4.62826 -4.859,6.67397 -1.89492,1.63372 -3.90592,3.07275 -6.00829,4.4231 -4.61389,2.66883 -9.22205,5.34757 -13.84166,8.00648 -0.33164,0.19088 -1.34178,0.73599 -1.0116,0.54261 3.93325,-2.30365 7.87727,-4.58888 11.82145,-6.87377 0.69404,-0.40206 -1.31457,0.9225 -2.00648,1.32821 -4.59658,2.69525 -9.23172,5.3242 -13.84758,7.9863 -5.0293,2.64188 -1.56365,0.83985 10.80951,-6.34078 0.7023,-0.40757 -1.34394,0.91371 -2.04363,1.32574 -4.6015,2.70968 -9.25068,5.33778 -13.85636,8.04037 -3.90297,2.29025 7.83214,-4.53555 11.74822,-6.80332 -4.6371,2.68448 -9.26541,5.3842 -13.91129,8.05344 -1.98594,1.141 -4.12901,1.80034 -6.43824,1.66057 -2.90337,-0.17285 -5.79826,-0.49279 -8.64853,-1.08744 -2.990801,-0.54515 -5.918469,-1.27737 -8.658446,-2.64601 -2.748823,-1.22803 -5.476721,-2.22062 -6.905134,-5.1028 -1.06478,-2.57388 -1.210122,-5.09903 -0.06673,-7.69204 1.114856,-2.34355 2.699845,-4.42175 3.976521,-6.67828 1.482793,-2.54617 3.080896,-5.02611 3.702175,-7.96046 0.523723,-2.84455 0.753474,-5.76021 1.834668,-8.47141 1.387763,-3.21611 3.464561,-6.03152 5.45992,-8.89507 1.853289,-2.46726 3.376018,-5.10633 4.826048,-7.82312 1.24243,-2.20527 2.775378,-4.23994 3.812088,-6.55594 1.416,-2.28995 3.3002,-4.23217 4.62914,-6.57654 1.64472,-2.77735 3.72276,-5.43262 6.02877,-7.67695 6.1502,-4.99413 13.33874,-8.61603 20.5558,-11.8315 3.04634,-1.10994 6.14834,-2.04685 9.24536,-3.00126 2.61324,-1.00868 5.18182,-2.15639 7.98194,-2.55581 2.35997,-0.51678 4.74486,-0.93267 7.13129,-1.30405 3.11677,-0.40363 6.17067,-1.0889 9.16172,-2.06327 2.68601,-0.79235 5.38554,-1.45606 8.12984,-2.01676 2.62901,-0.56511 5.218,-1.2666 7.77612,-2.0995 2.81771,-0.98592 5.62167,-1.99794 8.41585,-3.04719 2.47823,-0.87827 4.99281,-1.72151 7.30088,-2.99787 2.7288,-1.40889 5.51926,-2.66363 8.36416,-3.82122 2.62338,-1.14507 5.23881,-2.2773 8.1341,-2.49402 2.72925,-0.44479 5.48946,-0.66261 8.19336,-1.24382 2.92255,-0.7595 5.8477,-1.54358 8.65915,-2.65696 3.04698,-1.07967 6.211,-1.57667 9.38037,-2.17803 2.77837,-0.3941 5.56621,-0.32242 8.36394,-0.4742 2.45045,-0.19793 4.87692,-0.56125 7.20828,-1.37746 2.23246,-0.69106 4.35194,-1.65773 6.58568,-2.34099 1.03999,-0.35597 1.26777,-0.40288 2.277,-0.87702 0.39082,-0.18361 1.52521,-0.80933 1.15295,-0.59054 -20.83811,12.24759 -13.93177,8.32566 -9.62827,5.49209 2.04039,-1.34357 4.02908,-2.88803 5.75639,-4.60692 1.561,-1.96119 2.54429,-4.22754 2.39984,-6.77911 0.008,-2.53078 0.009,-5.06156 0.0218,-7.59233 -0.008,-2.52022 0.0209,-5.04571 -0.20496,-7.55859 -0.32049,-2.85609 -0.95842,-5.62798 -2.11963,-8.27214 -0.38544,-1.00889 -0.78033,-1.9314 -1.02464,-2.98595 -0.36656,-1.58222 -0.45067,-3.24117 -1.19279,-4.72866 -0.87308,-2.1604 -1.67041,-4.37586 -3.42526,-6.00556 -1.99071,-1.85763 -4.02958,-3.68157 -6.36179,-5.10795 -2.65195,-1.62178 -5.32446,-3.20113 -8.06217,-4.67451 -2.41487,-1.39732 -4.86481,-2.76088 -7.53385,-3.61614 -2.26266,-0.85528 -4.53308,-1.69975 -6.71612,-2.74651 -2.65357,-1.04015 -5.46879,-1.34568 -8.30713,-1.44142 -2.54352,-0.002 -5.08704,-0.008 -7.63056,-0.006 -2.47684,-10e-4 -4.95523,-0.002 -7.42943,0.12841 -2.5061,0.17005 -4.99274,0.5065 -7.43716,1.09957 -2.55863,0.5371 -5.00935,1.25174 -7.2442,2.66807 3.83228,-2.22802 7.66457,-4.45605 11.49685,-6.68407 -0.46411,0.27017 -0.9284,0.54003 -1.39233,0.8105 -6.15017,3.58563 -12.22215,7.29461 -18.50991,10.63048 -5.20967,2.81375 -16.21266,8.0871 6.64363,-4.25807 -2.30634,1.32676 -4.16676,3.30739 -5.64238,5.50998 -1.46363,2.29062 -3.16862,4.48312 -4.13124,7.04398 -0.62079,2.45202 -0.49986,4.93141 -0.45404,7.44593 0.0479,2.21486 0.12411,4.44002 0.5938,6.61386 0.60939,2.67232 1.26424,5.37076 2.31186,7.90544 1.21102,2.57251 2.48656,5.11152 3.75212,7.65676 1.33887,2.08436 2.77076,4.10847 4.16127,6.15842 1.48221,2.20035 3.24693,4.10896 5.6442,5.34508 2.67941,1.23381 5.3294,2.54816 8.08427,3.60446 3.62402,1.17211 7.3315,1.46509 11.13123,1.23981 0,0 -12.13808,8.81883 -12.13808,8.81883 z"
         id="path2989"
         style="fill:#008033;stroke:#aeaeae;stroke-width:2.5999999;stroke-miterlimit:4;stroke-opacity:1;stroke-dasharray:none" />
      <path
         transform="translate(0,552.36218)"
         inkscape:connector-curvature="0"
         id="path3763"
         d="m 148.58385,388.84344 c -10.71466,-3.04666 -12.59812,-6.40269 -12.5307,-22.32774 l 0.047,-11.11168 7.88627,-16.16244 c 4.33745,-8.88934 9.19544,-19.45115 10.79555,-23.4707 3.14447,-7.89904 7.97579,-15.97086 21.69457,-36.24575 4.84337,-7.15799 11.57486,-18.46935 14.95885,-25.13636 5.29361,-10.42925 6.15532,-12.8976 6.17136,-17.67767 0.0227,-6.76182 -2.77981,-12.67348 -7.54224,-15.9099 -4.97329,-3.37972 -9.19845,-2.9213 -18.03542,1.95681 -10.15882,5.6078 -31.35921,26.14605 -39.16129,37.93822 -9.85189,14.89026 -17.95321,18.13409 -32.72215,13.10222 -8.261037,-2.8146 -8.800944,-4.82007 -3.615213,-13.42863 1.959707,-3.2532 4.084013,-8.42992 4.720693,-11.50382 1.15087,-5.55647 8.51487,-18.66486 19.24112,-34.25042 l 4.68924,-6.81359 8.94782,-2.62662 c 4.92131,-1.44464 15.31179,-4.10611 23.08996,-5.91438 14.69213,-3.41562 23.64853,-6.40749 37.37564,-12.48528 4.44468,-1.96792 9.28044,-3.58358 10.74614,-3.59036 1.46571,-0.007 6.69325,-1.18753 11.61675,-2.62388 4.92352,-1.43635 12.93407,-2.99238 17.80121,-3.45785 4.86716,-0.46547 11.00384,-1.52334 13.63706,-2.35083 2.63324,-0.82749 8.87881,-1.75797 13.87907,-2.06773 5.00025,-0.30977 11.5915,-1.25328 14.64721,-2.09671 3.70222,-1.02186 10.16532,-1.53749 19.37183,-1.54548 13.73617,-0.0119 13.90604,0.0164 29.39725,4.90502 8.56969,2.70435 18.83797,6.62836 22.8184,8.72002 6.42037,3.37381 7.81954,4.67147 12.3974,11.49797 l 5.16025,7.69496 -0.52274,15.65736 c -0.28751,8.61155 -1.0367,16.96517 -1.66487,18.5636 -1.04508,2.65929 -1.45986,2.85467 -4.88162,2.29939 -6.99627,-1.13534 -16.49173,-6.75182 -24.93371,-14.74808 -11.62485,-11.01107 -24.23065,-21.09896 -29.16386,-23.33861 -6.64654,-3.0175 -15.93185,-2.64879 -23.50362,0.9333 -10.94608,5.17842 -24.16943,15.61956 -27.28417,21.54354 -3.7528,7.13754 -0.0965,21.73938 7.15817,28.58697 10.55884,9.96635 25.3223,17.88661 47.13325,25.28591 16.14583,5.47743 23.60124,11.77516 34.04356,28.75725 6.75295,10.98216 8.21409,15.42457 8.23253,25.03008 0.0215,11.22041 -1.82127,35.7103 -3.13334,41.63999 -0.5532,2.50013 -2.01023,6.59125 -3.23785,9.09137 -2.04534,4.16548 -2.61223,4.59734 -6.77771,5.16316 -8.55073,1.16149 -16.59841,-0.55118 -24.41757,-5.19646 -11.11737,-6.60471 -14.25973,-10.01131 -20.51481,-22.23991 -11.84201,-23.15096 -16.15738,-37.4655 -20.84517,-69.14559 -2.6637,-18.00134 -12.00944,-26.46896 -28.22699,-25.57483 -11.57968,0.63843 -29.38,11.23491 -34.53285,20.55729 -2.98109,5.39333 -9.00331,23.72611 -13.42818,40.87795 -4.55886,17.6713 -6.55554,23.36027 -11.34513,32.32489 -4.16231,7.79051 -18.02095,27.89395 -20.81065,30.18807 -2.03147,1.67058 -10.11265,2.06627 -14.82634,0.72596 l 0,0 z"
         style="fill:#ffb380;stroke:#aeaeae;stroke-width:2.62639642;stroke-miterlimit:4;stroke-opacity:1;stroke-dasharray:none" />
      <path
         transform="translate(0,552.36218)"
         inkscape:connector-curvature="0"
         id="path3765"
         d="m 216.81831,163.72924 c 1.90842,-1.13315 1.85247,-1.23672 -1.01015,-1.87007 -1.66675,-0.36876 -4.72213,-0.72426 -6.78973,-0.78999 -5.6803,-0.18059 -14.1021,-4.3502 -17.81409,-8.8197 -5.22908,-6.29617 -9.34823,-15.66667 -10.54812,-23.99552 -0.94833,-6.58267 -0.85825,-8.05871 0.70318,-11.52133 4.71847,-10.4637 11.21895,-13.59789 29.39879,-14.17455 12.74852,-0.40438 13.36921,-0.32507 21.21321,2.71048 10.56298,4.08777 23.12835,12.17651 25.23056,16.24174 3.58444,6.93153 5.71058,16.3295 5.7991,25.63316 0.12536,13.17553 -0.17902,13.8062 -6.66327,13.8062 -2.91289,0 -12.54185,0.90378 -21.39767,2.0084 -8.85583,1.10463 -17.01064,1.99994 -18.12181,1.98959 -2.0203,-0.0188 -2.0203,-0.0188 0,-1.21841 z"
         style="fill:#ffb380;stroke:#aeaeae;stroke-width:2.62639642;stroke-miterlimit:4;stroke-opacity:1;stroke-dasharray:none" />
    </g>
  </g>
</svg>
